<svg id="visual" viewBox="0 0 900 600" width="900" height="600" xmlns="http://www.w3.org/2000/svg" xmlns:xlink="http://www.w3.org/1999/xlink" version="1.1"><path d="M0 43L82 61L164 67L245 97L327 61L409 73L491 73L573 91L655 67L736 49L818 97L900 103L900 0L818 0L736 0L655 0L573 0L491 0L409 0L327 0L245 0L164 0L82 0L0 0Z" fill="#10b981"></path><path d="M0 211L82 277L164 181L245 361L327 295L409 235L491 241L573 271L655 229L736 187L818 277L900 325L900 101L818 95L736 47L655 65L573 89L491 71L409 71L327 59L245 95L164 65L82 59L0 41Z" fill="#0aa877"></path><path d="M0 343L82 415L164 337L245 415L327 379L409 409L491 301L573 409L655 283L736 277L818 349L900 409L900 323L818 275L736 185L655 227L573 269L491 239L409 233L327 293L245 359L164 179L82 275L0 209Z" fill="#06986c"></path><path d="M0 517L82 535L164 511L245 541L327 505L409 553L491 481L573 559L655 475L736 481L818 535L900 559L900 407L818 347L736 275L655 281L573 407L491 299L409 407L327 377L245 413L164 335L82 413L0 341Z" fill="#048862"></path><path d="M0 601L82 601L164 601L245 601L327 601L409 601L491 601L573 601L655 601L736 601L818 601L900 601L900 557L818 533L736 479L655 473L573 557L491 479L409 551L327 503L245 539L164 509L82 533L0 515Z" fill="#047857"></path></svg>